<svg xmlns="http://www.w3.org/2000/svg" viewBox="0 0 121.73 70.12"><g id="Слой_2" data-name="Слой 2"><g id="Li"><g id="main"><g class="path1"><path class="cls-1" d="M12.53 17.5V5.87l-.75.75H94.2a.75.75 0 0 0 0-1.5H11.78a.77.77 0 0 0-.75.75V17.5a.75.75 0 0 0 1.5 0Z"/></g><g class="path3"><path class="cls-1" d="M12.53 29.12v-4.66a.76.76 0 0 0-.75-.75.77.77 0 0 0-.75.75v4.66a.75.75 0 0 0 1.5 0Z"/></g><g class="path2"><path class="cls-1" d="M12.53 44.88V35.2a.75.75 0 0 0-1.5 0v9.68a.75.75 0 0 0 1.5 0Z"/></g><g class="path1"><path class="cls-1" d="M12.53 59V48.88a.75.75 0 0 0-1.5 0V59a.75.75 0 0 0 1.5 0Z"/></g><g class="path3"><path class="cls-2" d="M99 56.68v6.19l.75-.75h-83a.75.75 0 0 0 0 1.5h83a.76.76 0 0 0 .75-.75v-6.19a.75.75 0 0 0-1.5 0Z"/></g><g class="path2"><path class="cls-2" d="M99 39.1v7.55a.75.75 0 0 0 1.5 0V39.1a.75.75 0 0 0-1.5 0Z"/></g><g class="path2"><path class="cls-2" d="M99 28.92v5.46a.75.75 0 0 0 1.5 0v-5.46a.75.75 0 1 0-1.5 0Z"/></g><g class="path1"><path class="cls-2" d="M99 8.85v6.41a.75.75 0 0 0 1.5 0V8.85a.75.75 0 0 0-1.5 0Z"/></g><g class="path3"><path class="cls-1" d="M62.13 10.75h30.41a.38.38 0 0 0 0-.75H62.13a.38.38 0 0 0 0 .75Z"/></g><g class="path2"><path class="cls-2" d="M58.15 14.75h30.59a.38.38 0 0 0 0-.75H58.15a.38.38 0 0 0 0 .75Z"/></g><g class="path1"><path class="cls-1" d="M43.63.75h2.5a.38.38 0 0 0 0-.75h-2.5a.38.38 0 0 0-.38.38.38.38 0 0 0 .38.37Z"/></g><g class="path3"><path class="cls-2" d="M28.15 11.06h2.05a.38.38 0 0 0 0-.75h-2.05a.38.38 0 0 0 0 .75Z"/></g><g class="path2"><path class="cls-1" d="M2.62 12.06H23a.38.38 0 0 0 0-.75H2.62a.38.38 0 0 0 0 .75Z"/></g><g class="path1"><path class="cls-2" d="M3.13 6.5h3.42a1.13 1.13 0 0 0 0-2.25H3.13A1.14 1.14 0 0 0 2 5.37 1.16 1.16 0 0 0 3.13 6.5Z"/></g><g class="path2"><path class="cls-1" d="M1.13 42.5h3a1.13 1.13 0 0 0 0-2.25h-3A1.14 1.14 0 0 0 0 41.37a1.16 1.16 0 0 0 1.13 1.13Z"/></g><g class="path3"><path class="cls-1" d="M16.13 43.75h1.17a.38.38 0 0 0 .38-.38.38.38 0 0 0-.38-.37h-1.17a.38.38 0 0 0-.38.37.39.39 0 0 0 .38.38Z"/></g><g class="path1"><path class="cls-2" d="M6.13 56.12h14.33a.75.75 0 0 0 0-1.5H6.13a.75.75 0 0 0 0 1.5Z"/></g><g class="path3"><path class="cls-2" d="M29.2 57.46h2.69a1.11 1.11 0 0 0 .79-.33 1.07 1.07 0 0 0 .33-.79 1.14 1.14 0 0 0-1.12-1.13H29.2a1.18 1.18 0 0 0-.8.33 1.15 1.15 0 0 0-.33.8 1.14 1.14 0 0 0 1.13 1.12Z"/></g><g class="path2"><path class="cls-2" d="M29.2 69.07H33a.38.38 0 0 0 0-.75h-3.8a.38.38 0 0 0 0 .75Z"/></g><g class="path1"><path class="cls-2" d="M20.83 60.15h50.64a.38.38 0 0 0 0-.75H20.83a.38.38 0 0 0 0 .75Z"/></g><g class="path3"><path class="cls-1" d="M46.15 57.39h50.4a.38.38 0 0 0 0-.75h-50.4a.38.38 0 0 0 0 .75Z"/></g><g class="path2"><path class="cls-1" d="M79.13 54.5h1.5a1.17 1.17 0 0 0 .79-.33.77.77 0 0 0 .23-.36.84.84 0 0 0 .1-.44 1.11 1.11 0 0 0-.33-.79 1.17 1.17 0 0 0-.79-.33h-1.5a1.18 1.18 0 0 0-.8.33.77.77 0 0 0-.23.36.94.94 0 0 0-.1.43 1.12 1.12 0 0 0 .33.8 1.18 1.18 0 0 0 .8.33Z"/></g><g class="path1"><path class="cls-1" d="M80.13 70.12h2.48a.75.75 0 1 0 0-1.5h-2.48a.75.75 0 0 0 0 1.5Z"/></g><g class="path3"><path class="cls-2" d="M103.63 25.62H121a.75.75 0 0 0 0-1.5h-17.37a.75.75 0 0 0 0 1.5Z"/></g><g class="path2"><path class="cls-2" d="M104.63 10.5h3a1.13 1.13 0 0 0 0-2.25h-3a1.14 1.14 0 0 0-1.13 1.12 1.16 1.16 0 0 0 1.13 1.13Z"/></g></g><path class="cls-1" d="M23.45 40.58h9.85V28l-5.63 10.13L22.05 28v13.21h-.75V26.49h.75l5.62 10.14 5.63-10.12h.75v14.7h-10.6Z"/><path class="cls-2" d="M41.2 40.58h9.2l-5.3-12.24-5.58 12.87h-.8l6.38-14.72 6.37 14.72H41.2Z"/><path class="cls-1" d="m60.15 33.46 4.9 7.75h-.85l-4.48-7.07-4.47 7.07h-.85l4.9-7.75-4.4-6.95h.85l4 6.28 4-6.28h.85Z"/><path class="cls-2" d="M70.75 41.21H70v-14.7h.75Z"/><path class="cls-1" d="M79.59 40.58h9.85V28l-5.62 10.13L78.19 28v13.21h-.75V26.49h.75l5.63 10.14 5.62-10.12h.75v14.7h-10.6Z"/></g></g><defs><style>:root{--green:#0f0;--blue:#0ff;--red:red;--orange:#f55500;--yellow:#ff0;--pink:#ed00b1;--primary:var(--green);--supplement:var(--red);--clipHorHalf:polygon(25% 0,75% 0,75% to,25% to);--clipVertHalf:polygon(0 25%,to 25%,to 75%,0 75%)}.path1{animation-name:shakeX}.path2{animation-name:shakeX2}.path3{animation-name:shakeX3}.path1,.path2,.path3,.cls-1,.cls-2{animation-duration:6s;animation-timing-function:ease-in-out;animation-iteration-count:infinite;animation-direction:alternate;animation-delay:1s}.cls-1{fill:var(--primary);animation-name:smoothColor}.cls-2{fill:var(--supplement);animation-name:smoothColor2}@keyframes smoothColor{0%{fill:var(--primary)}45%{fill:var(--primary)}55%{fill:var(--supplement)}to{fill:var(--supplement)}}@keyframes smoothColor2{0%{fill:var(--supplement)}45%{fill:var(--supplement)}55%{fill:var(--primary)}to{fill:var(--primary)}}@keyframes shakeX{0%{transform:translate(0)}49%{clip-path:none;transform:translate(0)}49.5%{clip-path:var(--clipHorHalf);transform:translate(-7px)}50%{transform:translate(9px)}50.5%{transform:translate(-11px)}51%{transform:translate(5px)}51.5%{clip-path:none;transform:translate(0)}to{transform:translate(0)}}@keyframes shakeX2{0%{transform:translate(0)}50%{clip-path:none;transform:translate(0)}50.5%{clip-path:var(--clipHorHalf);transform:translate(-4px)}51%{transform:translate(4px)}51.5%{transform:translate(-7px)}52%{transform:translate(3px)}52.5%{clip-path:none;transform:translate(0)}to{transform:translate(0)}}@keyframes shakeX3{0%{transform:translate(0)}48%{clip-path:none;transform:translate(0)}48.5%{clip-path:var(--clipHorHalf);transform:translate(9px)}49%{transform:translate(-4px)}49.5%{transform:translate(7px)}50%{transform:translate(-3px)}50.5%{clip-path:none;transform:translate(0)}to{transform:translate(0)}}@keyframes shakeY{0%{transform:translateY(0)}50%{clip-path:none;transform:translateY(0)}50.5%{clip-path:var(--clipVertHalf);transform:translateY(-7px)}51%{transform:translateY(4px)}51.5%{transform:translateY(-9px)}52%{transform:translateY(3px)}52.5%{clip-path:none;transform:translateY(0)}to{transform:translateY(0)}}@keyframes shakeY2{0%{transform:translateY(0)}51%{clip-path:none;transform:translateY(0)}51.5%{clip-path:var(--clipVertHalf);transform:translateY(9px)}52%{transform:translateY(-4px)}52.5%{transform:translateY(11px)}53%{transform:translateY(-6px)}54.5%{clip-path:none;transform:translateY(0)}to{transform:translateY(0)}}</style></defs></svg>