<svg id="_лой_1" xmlns="http://www.w3.org/2000/svg" viewBox="0 0 170 100"><defs><style>:root{--green:#0f0;--orange:#f55500;--blue:#0ff;--red:red;--yellow:#ff0;--pink:#ed00b1;--primary:var(--blue);--supplement:var(--pink);--clipHorHalf:polygon(25% 0,75% 0,75% 100%,25% 100%);--clipVertHalf:polygon(0 25%,100% 25%,100% 75%,0 75%)}.cls-4{fill:#fff}.cls-3,.cls-2{animation-duration:7s;animation-timing-function:ease-in-out;animation-iteration-count:infinite;animation-direction:alternate;animation-delay:1s}.cls-2{fill:var(--primary);animation-name:smoothColor1}.cls-3{fill:var(--supplement);animation-name:smoothColor2}@keyframes smoothColor1{0%{fill:var(--primary)}48%{fill:var(--primary)}52%{fill:var(--supplement)}to{fill:var(--supplement)}}@keyframes smoothColor2{0%{fill:var(--supplement)}48%{fill:var(--supplement)}52%{fill:var(--primary)}to{fill:var(--primary)}}@keyframes glitchXLeftLarge{0%{clip-path:none;transform:translate(0)}48%{clip-path:none;transform:translate(0)}49%{clip-path:var(--clipHorHalf);transform:translate(-35%)}50%{transform:translate(10%)}51%{clip-path:var(--clipHorHalf);transform:translate(0)}52%{clip-path:none;transform:translate(0)}to{clip-path:none;transform:translate(0)}}@keyframes glitchXLeftSmall{0%{clip-path:none;transform:translate(0)}48.5%{clip-path:none;transform:translate(0)}49.5%{clip-path:var(--clipHorHalf);transform:translate(-15%)}50.5%{transform:translate(7%)}51.5%{clip-path:var(--clipHorHalf);transform:translate(0)}52.5%{clip-path:none;transform:translate(0)}to{clip-path:none;transform:translate(0)}}@keyframes glitchXRightLarge{0%{clip-path:none;transform:translate(0)}47.5%{clip-path:none;transform:translate(0)}48.5%{clip-path:var(--clipHorHalf);transform:translate(30%)}49.5%{transform:translate(-10%)}50.5%{clip-path:var(--clipHorHalf);transform:translate(0)}51.5%{clip-path:none;transform:translate(0)}to{clip-path:none;transform:translate(0)}}@keyframes glitchXRightSmall{0%{clip-path:none;transform:translate(0)}48%{clip-path:none;transform:translate(0)}49%{clip-path:var(--clipHorHalf);transform:translate(15%)}50%{transform:translate(-7%)}51%{clip-path:var(--clipHorHalf);transform:translate(0)}52%{clip-path:none;transform:translate(0)}to{clip-path:none;transform:translate(0)}}@keyframes glitchYTopSmall{0%{clip-path:none;transform:translateY(0)}48.5%{clip-path:none;transform:translateY(0)}49.5%{clip-path:var(--clipVertHalf);transform:translateY(-15%)}50.5%{transform:translateY(7%)}51.5%{clip-path:var(--clipVertHalf);transform:translateY(0)}52.5%{clip-path:none;transform:translateY(0)}to{clip-path:none;transform:translateY(0)}}@keyframes glitchYBottomSmall{0%{clip-path:none;transform:translateY(0)}48%{clip-path:none;transform:translateY(0)}49%{clip-path:var(--clipVertHalf);transform:translateY(15%)}50%{transform:translateY(-7%)}51%{clip-path:var(--clipVertHalf);transform:translateY(0)}52%{clip-path:none;transform:translateY(0)}to{clip-path:none;transform:translateY(0)}}</style></defs><g id="logo"><path id="frame" style="fill:none" d="M0 0h170v100H0z"/><g id="text"><g class="cls-2"><path d="M108.84 55.52h9.85V42.94l-5.62 10.13-5.63-10.13v13.21h-.75V41.43h.75l5.63 10.14 5.62-10.12h.75v14.7h-10.6v-.63ZM52.7 55.52h9.85V42.94l-5.63 10.13-5.62-10.13v13.21h-.75V41.43h.75l5.62 10.14 5.63-10.12h.75v14.7H52.7v-.63ZM89.41 48.4l4.9 7.75h-.85l-4.48-7.07-4.47 7.07h-.85l4.9-7.75-4.4-6.95h.85l4 6.28 4-6.28h.85l-4.45 6.95Z" style="animation-name:glitchYTopSmall;animation-duration:7s;animation-timing-function:ease-in-out;animation-iteration-count:infinite;animation-direction:alternate;animation-delay:1s"/></g><g class="cls-3"><path d="M100 56.15h-.75v-14.7h.75v14.7ZM70.45 55.52h9.2l-5.3-12.24-5.58 12.87h-.8l6.38-14.72 6.37 14.72H70.45v-.63Z" style="animation-name:glitchYBottomSmall;animation-duration:7s;animation-timing-function:ease-in-out;animation-iteration-count:infinite;animation-direction:alternate;animation-delay:1s"/></g></g><g id="main"><g id="rect"><g id="right_bottom_corner" class="cls-3"><path d="M128.24 71.62v6.19l.75-.75h-83c-.41 0-.75.34-.75.75s.34.75.75.75h83c.41 0 .74-.34.75-.75v-6.19c0-.41-.34-.75-.75-.75s-.75.34-.75.75Z" style="animation-name:glitchXRightLarge;animation-duration:7s;animation-timing-function:ease-in-out;animation-iteration-count:infinite;animation-direction:alternate;animation-delay:1s"/><path d="M128.24 23.79v6.41c0 .41.34.75.75.75s.75-.34.75-.75v-6.41c0-.41-.34-.75-.75-.75s-.75.34-.75.75ZM128.24 43.86v5.46c0 .41.34.75.75.75s.75-.34.75-.75v-5.46c0-.41-.34-.75-.75-.75s-.75.34-.75.75Z" style="animation-name:glitchYTopSmall;animation-duration:7s;animation-timing-function:ease-in-out;animation-iteration-count:infinite;animation-direction:alternate;animation-delay:1s"/><path d="M128.13 54.04v7.55c0 .41.34.75.75.75s.75-.34.75-.75v-7.55c0-.41-.34-.75-.75-.75s-.75.34-.75.75Z" style="animation-name:glitchYBottomSmall;animation-duration:7s;animation-timing-function:ease-in-out;animation-iteration-count:infinite;animation-direction:alternate;animation-delay:1s"/></g><g id="left-top-corner" class="cls-2"><path d="M41.76 32.44V20.81l-.75.75h82.42c.41 0 .75-.34.75-.75s-.34-.75-.75-.75H41.01c-.41.01-.74.34-.75.75v11.63c0 .41.34.75.75.75s.75-.34.75-.75Z" style="animation-name:glitchXLeftLarge;animation-duration:7s;animation-timing-function:ease-in-out;animation-iteration-count:infinite;animation-direction:alternate;animation-delay:1s"/><path d="M41.76 44.06V39.4c0-.41-.34-.74-.75-.75-.41.01-.74.34-.75.75v4.66c0 .41.34.75.75.75s.75-.34.75-.75Z" style="animation-name:glitchYTopSmall;animation-duration:7s;animation-timing-function:ease-in-out;animation-iteration-count:infinite;animation-direction:alternate;animation-delay:1s"/><path d="M41.76 59.82v-9.68c0-.41-.34-.75-.75-.75s-.75.34-.75.75v9.68c0 .41.34.75.75.75s.75-.34.75-.75ZM41.76 73.94V63.82c0-.41-.34-.75-.75-.75s-.75.34-.75.75v10.12c0 .41.34.75.75.75s.75-.34.75-.75Z" style="animation-name:glitchYBottomSmall;animation-duration:7s;animation-timing-function:ease-in-out;animation-iteration-count:infinite;animation-direction:alternate;animation-delay:1s"/></g></g><g id="floats"><g id="longLines"><g id="ll_color2" class="cls-3"><path d="M35.26 71.06h14.33c.41 0 .75-.34.75-.75s-.34-.75-.75-.75H35.26c-.41 0-.75.34-.75.75s.34.75.75.75ZM49.96 75.09h50.64c.21-.03.35-.23.31-.44a.371.371 0 0 0-.31-.31H49.96c-.21.03-.35.23-.31.44.03.16.15.29.31.31Z" style="animation-name:glitchXLeftSmall;animation-duration:7s;animation-timing-function:ease-in-out;animation-iteration-count:infinite;animation-direction:alternate;animation-delay:1s"/><path d="M87.28 29.69h30.59c.21-.03.35-.23.31-.44a.371.371 0 0 0-.31-.31H87.28c-.21.03-.35.23-.31.44.03.16.15.29.31.31ZM132.76 40.56h17.37c.41 0 .75-.34.75-.75s-.34-.75-.75-.75h-17.37c-.41 0-.75.34-.75.75s.34.75.75.75Z" style="animation-name:glitchXRightSmall;animation-duration:7s;animation-timing-function:ease-in-out;animation-iteration-count:infinite;animation-direction:alternate;animation-delay:1s"/></g><g id="ll_color1" class="cls-2"><path d="M31.75 27h20.38c.21-.03.35-.23.31-.44a.371.371 0 0 0-.31-.31H31.75c-.21.03-.35.23-.31.44.03.16.15.29.31.31Z" style="animation-name:glitchXLeftSmall;animation-duration:7s;animation-timing-function:ease-in-out;animation-iteration-count:infinite;animation-direction:alternate;animation-delay:1s"/><path d="M91.26 25.69h30.41c.21-.03.35-.23.31-.44a.371.371 0 0 0-.31-.31H91.26c-.21.03-.35.23-.31.44.03.16.15.29.31.31Z" style="animation-name:glitchXRightSmall;animation-duration:7s;animation-timing-function:ease-in-out;animation-iteration-count:infinite;animation-direction:alternate;animation-delay:1s"/><path d="M75.28 72.33h50.4c.21-.03.35-.23.31-.44a.371.371 0 0 0-.31-.31h-50.4c-.21.03-.35.23-.31.44.03.16.15.29.31.31Z" style="animation-name:glitchXRightLarge;animation-duration:7s;animation-timing-function:ease-in-out;animation-iteration-count:infinite;animation-direction:alternate;animation-delay:1s"/></g></g><g id="clouds"><g id="cl_color2" class="cls-3"><path d="M32.26 21.44h3.42a1.13 1.13 0 0 0 0-2.25h-3.42c-.62 0-1.12.5-1.13 1.12.02.62.51 1.11 1.13 1.13ZM57.28 26h2.05c.21-.03.35-.23.31-.44a.371.371 0 0 0-.31-.31h-2.05c-.21.03-.35.23-.31.44.03.16.15.29.31.31ZM58.33 72.4h2.69c.3 0 .58-.12.79-.33.22-.21.33-.49.33-.79 0-.62-.5-1.12-1.12-1.13h-2.69c-.3 0-.58.12-.8.33-.21.21-.33.5-.33.8.01.62.51 1.11 1.13 1.12ZM58.33 84.01h3.8c.21-.03.35-.23.31-.44a.371.371 0 0 0-.31-.31h-3.8c-.21.03-.35.23-.31.44.03.16.15.29.31.31Z" style="animation-name:glitchXLeftSmall;animation-duration:7s;animation-timing-function:ease-in-out;animation-iteration-count:infinite;animation-direction:alternate;animation-delay:1s"/><path d="M133.76 25.44h3a1.13 1.13 0 0 0 0-2.25h-3c-.62 0-1.12.5-1.13 1.12.02.62.51 1.11 1.13 1.13Z" style="animation-name:glitchXRightSmall;animation-duration:7s;animation-timing-function:ease-in-out;animation-iteration-count:infinite;animation-direction:alternate;animation-delay:1s"/></g><g id="cl_color1" class="cls-2"><path d="M30.26 57.44h3a1.13 1.13 0 0 0 0-2.25h-3c-.62 0-1.12.5-1.13 1.12.02.62.51 1.11 1.13 1.13ZM45.26 58.69h1.17c.21 0 .38-.17.38-.38s-.17-.37-.38-.37h-1.17c-.21 0-.37.16-.38.37 0 .21.17.37.38.38ZM72.76 15.69h2.5c.21-.03.35-.23.31-.44a.371.371 0 0 0-.31-.31h-2.5a.38.38 0 0 0-.38.38c0 .21.17.37.38.37Z" style="animation-name:glitchXLeftSmall;animation-duration:7s;animation-timing-function:ease-in-out;animation-iteration-count:infinite;animation-direction:alternate;animation-delay:1s"/><path d="M108.26 69.44h1.5c.3 0 .58-.12.79-.33.11-.1.19-.22.23-.36.07-.13.11-.29.1-.44 0-.3-.12-.58-.33-.79-.21-.21-.49-.32-.79-.33h-1.5c-.3 0-.58.12-.8.33a.77.77 0 0 0-.23.36c-.07.13-.1.28-.1.43 0 .3.12.59.33.8.22.21.5.33.8.33ZM109.26 85.06h2.48c.41 0 .75-.34.75-.75s-.34-.75-.75-.75h-2.48c-.41 0-.75.34-.75.75s.34.75.75.75Z" style="animation-name:glitchXRightSmall;animation-duration:7s;animation-timing-function:ease-in-out;animation-iteration-count:infinite;animation-direction:alternate;animation-delay:1s"/></g></g></g></g></g></svg>