<svg xmlns="http://www.w3.org/2000/svg" viewBox="0 0 121.73 70.12">
  <g id="Слой_2" data-name="Слой 2">
    <g id="Li">
      <g id="main">
        <g class="path1">
          <path
            class="cls-1"
            d="M12.53,17.5V5.87l-.75.75H94.2a.75.75,0,0,0,0-1.5H11.78a.77.77,0,0,0-.75.75V17.5a.75.75,0,0,0,1.5,0Z"
          />
        </g>

        <g class="path3">
          <path
            class="cls-1"
            d="M12.53,29.12V24.46a.76.76,0,0,0-.75-.75.77.77,0,0,0-.75.75v4.66a.75.75,0,0,0,1.5,0Z"
          />
        </g>
        <g class="path2">
          <path
            class="cls-1"
            d="M12.53,44.88V35.2a.75.75,0,0,0-1.5,0v9.68a.75.75,0,0,0,1.5,0Z"
          />
        </g>
        <g class="path1">
          <path
            class="cls-1"
            d="M12.53,59V48.88a.75.75,0,0,0-1.5,0V59a.75.75,0,0,0,1.5,0Z"
          />
        </g>
        <g class="path3">
          <path
            class="cls-2"
            d="M99,56.68v6.19l.75-.75h-83a.75.75,0,0,0,0,1.5h83a.76.76,0,0,0,.75-.75V56.68a.75.75,0,0,0-1.5,0Z"
          />
        </g>
        <g class="path2">
          <path
            class="cls-2"
            d="M99,39.1v7.55a.75.75,0,0,0,1.5,0V39.1a.75.75,0,0,0-1.5,0Z"
          />
        </g>
        <g class="path2">
          <path
            class="cls-2"
            d="M99,28.92v5.46a.75.75,0,0,0,1.5,0V28.92a.75.75,0,1,0-1.5,0Z"
          />
        </g>
        <g class="path1">
          <path
            class="cls-2"
            d="M99,8.85v6.41a.75.75,0,0,0,1.5,0V8.85a.75.75,0,0,0-1.5,0Z"
          />
        </g>

        <g class="path3">
          <path
            class="cls-1"
            d="M62.13,10.75H92.54a.38.38,0,0,0,0-.75H62.13a.38.38,0,0,0,0,.75Z"
          />
        </g>
        <g class="path2">
          <path
            class="cls-2"
            d="M58.15,14.75H88.74a.38.38,0,0,0,0-.75H58.15a.38.38,0,0,0,0,.75Z"
          />
        </g>
        <g class="path1">
          <path
            class="cls-1"
            d="M43.63.75h2.5a.38.38,0,0,0,0-.75h-2.5a.38.38,0,0,0-.38.38.38.38,0,0,0,.38.37Z"
          />
        </g>
        <g class="path3">
          <path
            class="cls-2"
            d="M28.15,11.06H30.2a.38.38,0,0,0,0-.75H28.15a.38.38,0,0,0,0,.75Z"
          />
        </g>
        <g class="path2">
          <path
            class="cls-1"
            d="M2.62,12.06H23a.38.38,0,0,0,0-.75H2.62a.38.38,0,0,0,0,.75Z"
          />
        </g>
        <g class="path1">
          <path
            class="cls-2"
            d="M3.13,6.5H6.55a1.13,1.13,0,0,0,0-2.25H3.13A1.14,1.14,0,0,0,2,5.37,1.16,1.16,0,0,0,3.13,6.5Z"
          />
        </g>
        <g class="path2">
          <path
            class="cls-1"
            d="M1.13,42.5h3a1.13,1.13,0,0,0,0-2.25h-3A1.14,1.14,0,0,0,0,41.37,1.16,1.16,0,0,0,1.13,42.5Z"
          />
        </g>
        <g class="path3">
          <path
            class="cls-1"
            d="M16.13,43.75H17.3a.38.38,0,0,0,.38-.38A.38.38,0,0,0,17.3,43H16.13a.38.38,0,0,0-.38.37.39.39,0,0,0,.38.38Z"
          />
        </g>
        <g class="path1">
          <path
            class="cls-2"
            d="M6.13,56.12H20.46a.75.75,0,0,0,0-1.5H6.13a.75.75,0,0,0,0,1.5Z"
          />
        </g>
        <g class="path3">
          <path
            class="cls-2"
            d="M29.2,57.46h2.69a1.11,1.11,0,0,0,.79-.33,1.07,1.07,0,0,0,.33-.79,1.14,1.14,0,0,0-1.12-1.13H29.2a1.18,1.18,0,0,0-.8.33,1.15,1.15,0,0,0-.33.8,1.14,1.14,0,0,0,1.13,1.12Z"
          />
        </g>
        <g class="path2">
          <path
            class="cls-2"
            d="M29.2,69.07H33a.38.38,0,0,0,0-.75H29.2a.38.38,0,0,0,0,.75Z"
          />
        </g>
        <g class="path1">
          <path
            class="cls-2"
            d="M20.83,60.15H71.47a.38.38,0,0,0,0-.75H20.83a.38.38,0,0,0,0,.75Z"
          />
        </g>
        <g class="path3">
          <path
            class="cls-1"
            d="M46.15,57.39h50.4a.38.38,0,0,0,0-.75H46.15a.38.38,0,0,0,0,.75Z"
          />
        </g>
        <g class="path2">
          <path
            class="cls-1"
            d="M79.13,54.5h1.5a1.17,1.17,0,0,0,.79-.33.77.77,0,0,0,.23-.36.84.84,0,0,0,.1-.44,1.11,1.11,0,0,0-.33-.79,1.17,1.17,0,0,0-.79-.33h-1.5a1.18,1.18,0,0,0-.8.33.77.77,0,0,0-.23.36.94.94,0,0,0-.1.43,1.12,1.12,0,0,0,.33.8,1.18,1.18,0,0,0,.8.33Z"
          />
        </g>
        <g class="path1">
          <path
            class="cls-1"
            d="M80.13,70.12h2.48a.75.75,0,1,0,0-1.5H80.13a.75.75,0,0,0,0,1.5Z"
          />
        </g>
        <g class="path3">
          <path
            class="cls-2"
            d="M103.63,25.62H121a.75.75,0,0,0,0-1.5H103.63a.75.75,0,0,0,0,1.5Z"
          />
        </g>
        <g class="path2">
          <path
            class="cls-2"
            d="M104.63,10.5h3a1.13,1.13,0,0,0,0-2.25h-3a1.14,1.14,0,0,0-1.13,1.12,1.16,1.16,0,0,0,1.13,1.13Z"
          />
        </g>
      </g>
      <path
        class="cls-1"
        d="M23.45,40.58H33.3V28L27.67,38.13,22.05,28V41.21l-.75,0V26.49h.75l5.62,10.14L33.3,26.51l.75,0V41.21l-10.6,0Z"
      />
      <path
        class="cls-2"
        d="M41.2,40.58h9.2L45.1,28.34,39.52,41.21h-.8L45.1,26.49l6.37,14.72H41.2Z"
      />
      <path
        class="cls-1"
        d="M60.15,33.46l4.9,7.75H64.2l-4.48-7.07-4.47,7.07H54.4l4.9-7.75-4.4-6.95h.85l4,6.28,4-6.28h.85Z"
      />
      <path class="cls-2" d="M70.75,41.21H70V26.51h.75Z" />
      <path
        class="cls-1"
        d="M79.59,40.58h9.85V28L83.82,38.13,78.19,28V41.21l-.75,0V26.49h.75l5.63,10.14,5.62-10.12.75,0V41.21l-10.6,0Z"
      />
    </g>
  </g>
  <defs>
    <style>
      @import './style.css';
    </style>
  </defs>
</svg>
