<?xml version="1.0" encoding="UTF-8"?><svg
  id="_лой_1"
  xmlns="http://www.w3.org/2000/svg"
  viewBox="0 0 170 100"
>
  <defs>
    <style>
      @import './style.css';
    </style>
  </defs>
  <g id="logo">
    <rect id="frame" class="cls-1" width="170" height="100" />
    <g id="text">
      <path
        id="text_1"
        class="cls-2"
        d="M108.84,55.52h9.85v-12.58l-5.62,10.13-5.63-10.13v13.21h-.75v-14.72h.75l5.63,10.14,5.62-10.12h.75v14.7h-10.6v-.63Z"
      />
      <path id="text_2" class="cls-3" d="M100,56.15h-.75v-14.7h.75v14.7Z" />
      <path
        id="text_3"
        class="cls-2"
        d="M89.41,48.4l4.9,7.75h-.85l-4.48-7.07-4.47,7.07h-.85l4.9-7.75-4.4-6.95h.85l4,6.28,4-6.28h.85l-4.45,6.95Z"
      />
      <path
        id="text_4"
        class="cls-3"
        d="M70.45,55.52h9.2l-5.3-12.24-5.58,12.87h-.8l6.38-14.72,6.37,14.72h-10.27v-.63Z"
      />
      <path
        id="text_5"
        class="cls-2"
        d="M52.7,55.52h9.85v-12.58l-5.63,10.13-5.62-10.13v13.21h-.75v-14.72h.75l5.62,10.14,5.63-10.12h.75v14.7h-10.6v-.63Z"
      />
    </g>
    <g id="main">
      <g id="rect">
        <g id="right_bottom_corner" class="cls-3">
          <path
            id="rb_long"
            d="M128.24,71.62v6.19l.75-.75H45.99c-.41,0-.75,.34-.75,.75s.34,.75,.75,.75h83c.41,0,.74-.34,.75-.75v-6.19c0-.41-.34-.75-.75-.75s-.75,.34-.75,.75Z"
          />
          <path
            id="rb_wall_1"
            d="M128.24,23.79v6.41c0,.41,.34,.75,.75,.75s.75-.34,.75-.75v-6.41c0-.41-.34-.75-.75-.75s-.75,.34-.75,.75Z"
          />
          <path
            id="rb_wall_2"
            d="M128.24,43.86v5.46c0,.41,.34,.75,.75,.75s.75-.34,.75-.75v-5.46c0-.41-.34-.75-.75-.75s-.75,.34-.75,.75Z"
          />
          <path
            id="rb_wall_3"
            d="M128.13,54.04v7.55c0,.41,.34,.75,.75,.75s.75-.34,.75-.75v-7.55c0-.41-.34-.75-.75-.75s-.75,.34-.75,.75Z"
          />
        </g>
        <g id="left-top-corner" class="cls-2">
          <path
            id="lt-long"
            d="M41.76,32.44v-11.63l-.75,.75H123.43c.41,0,.75-.34,.75-.75s-.34-.75-.75-.75H41.01c-.41,.01-.74,.34-.75,.75v11.63c0,.41,.34,.75,.75,.75s.75-.34,.75-.75Z"
          />
          <path
            id="lt_wall_1"
            d="M41.76,44.06v-4.66c0-.41-.34-.74-.75-.75-.41,.01-.74,.34-.75,.75v4.66c0,.41,.34,.75,.75,.75s.75-.34,.75-.75Z"
          />
          <path
            id="lt_wall_2"
            d="M41.76,59.82v-9.68c0-.41-.34-.75-.75-.75s-.75,.34-.75,.75v9.68c0,.41,.34,.75,.75,.75s.75-.34,.75-.75Z"
          />
          <path
            id="lt_wall_3"
            d="M41.76,73.94v-10.12c0-.41-.34-.75-.75-.75s-.75,.34-.75,.75v10.12c0,.41,.34,.75,.75,.75s.75-.34,.75-.75Z"
          />
        </g>
      </g>
      <g id="floats">
        <g id="longLines">
          <g id="ll_color2" class="cls-3">
            <path
              id="fl_l_1"
              d="M35.26,71.06h14.33c.41,0,.75-.34,.75-.75s-.34-.75-.75-.75h-14.33c-.41,0-.75,.34-.75,.75s.34,.75,.75,.75Z"
            />
            <path
              id="fl_l_2"
              d="M49.96,75.09h50.64c.21-.03,.35-.23,.31-.44-.03-.16-.15-.29-.31-.31H49.96c-.21,.03-.35,.23-.31,.44,.03,.16,.15,.29,.31,.31Z"
            />
            <path
              id="fl_l_3"
              d="M87.28,29.69h30.59c.21-.03,.35-.23,.31-.44-.03-.16-.15-.29-.31-.31h-30.59c-.21,.03-.35,.23-.31,.44,.03,.16,.15,.29,.31,.31Z"
            />
            <path
              id="fl_l_4"
              d="M132.76,40.56h17.37c.41,0,.75-.34,.75-.75s-.34-.75-.75-.75h-17.37c-.41,0-.75,.34-.75,.75s.34,.75,.75,.75Z"
            />
          </g>
          <g id="ll_color1" class="cls-2">
            <path
              id="fl_l_5"
              d="M31.75,27h20.38c.21-.03,.35-.23,.31-.44-.03-.16-.15-.29-.31-.31H31.75c-.21,.03-.35,.23-.31,.44,.03,.16,.15,.29,.31,.31Z"
            />
            <path
              id="fl_l_6"
              d="M91.26,25.69h30.41c.21-.03,.35-.23,.31-.44-.03-.16-.15-.29-.31-.31h-30.41c-.21,.03-.35,.23-.31,.44,.03,.16,.15,.29,.31,.31Z"
            />
            <path
              id="fl_l_7"
              d="M75.28,72.33h50.4c.21-.03,.35-.23,.31-.44-.03-.16-.15-.29-.31-.31h-50.4c-.21,.03-.35,.23-.31,.44,.03,.16,.15,.29,.31,.31Z"
            />
          </g>
        </g>
        <g id="clouds">
          <g id="cl_color2" class="cls-3">
            <path
              id="fl_c_1"
              d="M32.26,21.44h3.42c.62-.06,1.08-.61,1.02-1.23-.05-.54-.48-.97-1.02-1.02h-3.42c-.62,0-1.12,.5-1.13,1.12,.02,.62,.51,1.11,1.13,1.13Z"
            />
            <path
              id="fl_c_2"
              d="M57.28,26h2.05c.21-.03,.35-.23,.31-.44-.03-.16-.15-.29-.31-.31h-2.05c-.21,.03-.35,.23-.31,.44,.03,.16,.15,.29,.31,.31Z"
            />
            <path
              id="fl_c_3"
              d="M58.33,72.4h2.69c.3,0,.58-.12,.79-.33,.22-.21,.33-.49,.33-.79,0-.62-.5-1.12-1.12-1.13h-2.69c-.3,0-.58,.12-.8,.33-.21,.21-.33,.5-.33,.8,.01,.62,.51,1.11,1.13,1.12Z"
            />
            <path
              id="fl_c_4"
              d="M58.33,84.01h3.8c.21-.03,.35-.23,.31-.44-.03-.16-.15-.29-.31-.31h-3.8c-.21,.03-.35,.23-.31,.44,.03,.16,.15,.29,.31,.31Z"
            />
            <path
              id="fl_c_5"
              d="M133.76,25.44h3c.62-.06,1.08-.61,1.02-1.23-.05-.54-.48-.97-1.02-1.02h-3c-.62,0-1.12,.5-1.13,1.12,.02,.62,.51,1.11,1.13,1.13Z"
            />
          </g>
          <g id="cl_color1" class="cls-2">
            <path
              id="fl_c_6"
              d="M30.26,57.44h3c.62-.06,1.08-.61,1.02-1.23-.05-.54-.48-.97-1.02-1.02h-3c-.62,0-1.12,.5-1.13,1.12,.02,.62,.51,1.11,1.13,1.13Z"
            />
            <path
              id="fl_c_7"
              d="M45.26,58.69h1.17c.21,0,.38-.17,.38-.38h0c0-.21-.17-.37-.38-.37h-1.17c-.21,0-.37,.16-.38,.37,0,.21,.17,.37,.38,.38Z"
            />
            <path
              id="fl_c_8"
              d="M72.76,15.69h2.5c.21-.03,.35-.23,.31-.44-.03-.16-.15-.29-.31-.31h-2.5c-.21,0-.38,.17-.38,.38h0c0,.21,.17,.37,.38,.37Z"
            />
            <path
              id="fl_c_9"
              d="M108.26,69.44h1.5c.3,0,.58-.12,.79-.33,.11-.1,.19-.22,.23-.36,.07-.13,.11-.29,.1-.44,0-.3-.12-.58-.33-.79-.21-.21-.49-.32-.79-.33h-1.5c-.3,0-.58,.12-.8,.33-.11,.1-.19,.22-.23,.36-.07,.13-.1,.28-.1,.43,0,.3,.12,.59,.33,.8,.22,.21,.5,.33,.8,.33Z"
            />
            <path
              id="fl_c_10"
              d="M109.26,85.06h2.48c.41,0,.75-.34,.75-.75s-.34-.75-.75-.75h-2.48c-.41,0-.75,.34-.75,.75s.34,.75,.75,.75Z"
            />
          </g>
        </g>
      </g>
    </g>
  </g>
</svg>
